<?xml version="1.0" encoding="utf-8"?>
<!-- Generator: Adobe Illustrator 19.0.0, SVG Export Plug-In . SVG Version: 6.00 Build 0)  -->
<svg version="1.1" id="Layer_1" xmlns="http://www.w3.org/2000/svg" xmlns:xlink="http://www.w3.org/1999/xlink" x="0px" y="0px"
	 viewBox="0 0 512 512" style="enable-background:new 0 0 512 512;" xml:space="preserve">
<style type="text/css">
	.st0{fill:#FBB03B;stroke:url(#XMLID_2_);stroke-width:4;stroke-miterlimit:10;}
	.st1{fill:#FBB03B;stroke:url(#XMLID_3_);stroke-width:4;stroke-miterlimit:10;}
	.st2{fill:#FBB03B;stroke:url(#XMLID_4_);stroke-width:4;stroke-miterlimit:10;}
	.st3{fill:#FBB03B;stroke:url(#XMLID_5_);stroke-width:4;stroke-miterlimit:10;}
</style>
<linearGradient id="XMLID_2_" gradientUnits="userSpaceOnUse" x1="5.2882" y1="323.4415" x2="355.2421" y2="323.4415">
	<stop  offset="0" style="stop-color:#ED1E79"/>
	<stop  offset="1" style="stop-color:#FBAE17"/>
</linearGradient>
<path id="XMLID_44_" class="st0" d="M251.6,231.3c33.8,33.8,67.4,67.4,100.8,100.8c-33.4,33.4-67.1,67.1-100.7,100.7
	c0-17.6,0-35.4,0-53.3c-1.2-0.1-2.2-0.1-3.3-0.2c-29.3-0.5-58.5-3.4-87.3-8.5c-29.3-5.2-58-12.6-85.9-23
	c-20.1-7.5-37.6-19-51.5-35.5C15.3,302.3,10.3,291,9.1,278c-2-20.8-2.4-41.7-0.9-62.6c0-0.3,0.1-0.6,0.2-1.3
	c0.4,0.5,0.6,0.6,0.7,0.8c5.4,12,14.6,20.4,25.3,27.4c15,9.7,31.4,16,48.4,21.1c21.3,6.5,43,11,64.9,14.6
	c33.7,5.6,67.7,8.2,101.9,8.6c0.6,0,1.2-0.1,2-0.1C251.6,268.2,251.6,249.8,251.6,231.3z"/>
<linearGradient id="XMLID_3_" gradientUnits="userSpaceOnUse" x1="176.825" y1="152.8823" x2="487.0339" y2="152.8823">
	<stop  offset="0" style="stop-color:#ED1E79"/>
	<stop  offset="1" style="stop-color:#FBAE17"/>
</linearGradient>
<path id="XMLID_43_" class="st1" d="M241.6,171.2c0,12.8,0,25.4,0,37.8c-20.7-20.7-41.4-41.5-62-62.1c20.3-20.3,41.1-41.1,61.9-61.9
	c0,12.2,0,24.6,0,37.4c2.7,0,5.2,0,7.7,0c26.6,0.4,53.1,1.7,79.5,4.4c32.5,3.3,64.6,8.4,95.8,18.2c17.8,5.6,34,14.2,47.4,27.5
	c5.6,5.5,9.8,11.8,12.1,19.4c1.8,6,1,11.5-2.4,16.6c-4.6,6.8-10.8,11.7-18.3,14.8c-0.7,0.3-2,0.2-2.6-0.2
	c-21.1-15.8-45-25.3-70.3-32c-29.1-7.6-58.4-13.2-88.3-16.5c-19.6-2.1-39.2-3.3-58.9-3.5C242.7,171.2,242.3,171.2,241.6,171.2z"/>
<linearGradient id="XMLID_4_" gradientUnits="userSpaceOnUse" x1="380.8171" y1="294.0341" x2="508.7779" y2="294.0341">
	<stop  offset="0" style="stop-color:#ED1E79"/>
	<stop  offset="1" style="stop-color:#FBAE17"/>
</linearGradient>
<path id="XMLID_42_" class="st2" d="M504.9,213.5c0.5,9.6,1.2,19.1,1.6,28.7c0.5,14.4,0.4,28.8-2.4,42.9
	c-3.9,19.5-13.4,35.6-29.7,47.5c-19,13.9-39.7,24.5-61.7,32.6c-9.2,3.4-18.7,5.9-28.1,8.7c-0.5,0.2-1.1,0.2-1.9,0.3
	c0-0.9,0-1.5,0-2.2c0-31.4,0-62.8,0-94.2c0-1.9,0.7-2.5,2.4-2.8c19-3.8,37.8-8.6,56.1-15.3c16.2-5.9,31.9-13,45.6-23.8
	c6.2-4.8,11.6-10.3,15.3-17.4c0.8-1.6,1.4-3.3,2.1-5C504.5,213.5,504.7,213.5,504.9,213.5z"/>
<linearGradient id="XMLID_5_" gradientUnits="userSpaceOnUse" x1="24.4253" y1="174.6115" x2="147.7271" y2="174.6115">
	<stop  offset="0" style="stop-color:#ED1E79"/>
	<stop  offset="1" style="stop-color:#FBAE17"/>
</linearGradient>
<path id="XMLID_41_" class="st3" d="M44.4,218.3c-6-4.5-11.4-9.6-14.9-16.5c-5.4-10.4-3.6-21.8,4.6-30.2c5-5.2,10.9-9.2,17.2-12.7
	c19.7-11,40.6-18.6,62.6-23.2c9.9-2.1,20-3.6,30-5.4c0.5-0.1,1.1,0,1.8,0c0,0.8,0.1,1.4,0.1,2.1c0,14.3,0,28.6,0,42.9
	c0,1.6-0.4,2.2-2.1,2.5c-18.5,3.1-36.7,7.1-54.3,13.7c-14.3,5.3-27.7,12.2-39.5,21.9C48,214.9,46.4,216.6,44.4,218.3z"/>
</svg>
